<svg preserveAspectRatio="none" overflow="visible" style="display: block;" width="13.5" height="13.125" viewBox="0 0 13.5 13.125" fill="none" xmlns="http://www.w3.org/2000/svg">
<g id="Container">
<path id="Icon" d="M8.25 13.125V11.5875C9.375 11.2625 10.2812 10.6375 10.9688 9.7125C11.6562 8.7875 12 7.7375 12 6.5625C12 5.3875 11.6562 4.3375 10.9688 3.4125C10.2812 2.4875 9.375 1.8625 8.25 1.5375V0C9.8 0.35 11.0625 1.13438 12.0375 2.35313C13.0125 3.57188 13.5 4.975 13.5 6.5625C13.5 8.15 13.0125 9.55313 12.0375 10.7719C11.0625 11.9906 9.8 12.775 8.25 13.125V13.125M0 8.83125V4.33125H3L6.75 0.58125V12.5813L3 8.83125H0V8.83125M8.25 9.58125V3.54375C8.8375 3.81875 9.29688 4.23125 9.62813 4.78125C9.95938 5.33125 10.125 5.93125 10.125 6.58125C10.125 7.21875 9.95938 7.80937 9.62813 8.35312C9.29688 8.89687 8.8375 9.30625 8.25 9.58125V9.58125M5.25 4.21875L3.6375 5.83125H1.5V7.33125H3.6375L5.25 8.94375V4.21875V4.21875M3.375 6.58125V6.58125V6.58125V6.58125V6.58125V6.58125V6.58125V6.58125" fill="#23005C"/>
</g>
</svg>
