<svg preserveAspectRatio="none" overflow="visible" style="display: block;" width="110" height="65" viewBox="0 0 110 65" fill="none" xmlns="http://www.w3.org/2000/svg">
<g id="SVG">
<path id="Vector" d="M30 52C18.9543 52 10 43.0457 10 32C10 22.0689 17.2346 13.824 26.7923 12.2382C30.0763 6.44474 36.3115 2.5 43.4 2.5C51.5833 2.5 58.5529 7.76848 61.1219 15.267C63.747 13.9333 66.7265 13.14 69.85 13.14C81.7646 13.14 91.42 22.7954 91.42 34.71C91.42 35.1396 91.4074 35.5654 91.3837 35.9872C96.7261 38.2526 100.41 43.5097 100.41 49.62C100.41 57.0673 94.3873 63.09 86.94 63.09H30V52" fill="#E9DDFF" fill-opacity="0.3"/>
</g>
</svg>
